<svg width="85.8mm" height="79.7mm" version="1.1" viewBox="0 0 85.8 79.7" xmlns="http://www.w3.org/2000/svg">
	<g transform="translate(-85.3,-61.3)">
		<path transform="matrix(.265 0 0 .265 85.3 61.3)" d="m257 246-90-75-40 110 21-116-116 21 110-40-75.5-90.4 90.5 75.4 40-110-21 116 116-21-110 40z" fill="#15a392"/>
		<path transform="matrix(.162 .21 -.21 .162 134 42.9)" d="m257 246-90-75-40 110 21-116-116 21 110-40-75.5-90.4 90.5 75.4 40-110-21 116 116-21-110 40z" fill="#15a327" fill-opacity=".523"/>
		<path transform="matrix(.158 -.213 .213 .158 70.4 111)" d="m257 246-90-75-40 110 21-116-116 21 110-40-75.5-90.4 90.5 75.4 40-110-21 116 116-21-110 40z" fill="#15a327" fill-opacity=".523"/>
	</g>
</svg>
